<?xml version="1.0" standalone="no"?>
<!DOCTYPE svg PUBLIC "-//W3C//DTD SVG 20010904//EN"
 "http://www.w3.org/TR/2001/REC-SVG-20010904/DTD/svg10.dtd">
<svg version="1.0" xmlns="http://www.w3.org/2000/svg"
 width="600.000000pt" height="600.000000pt" viewBox="0 0 600.000000 600.000000"
 preserveAspectRatio="xMidYMid meet">
<metadata>
Created by potrace 1.14, written by Peter Selinger 2001-2017
</metadata>
<g transform="translate(0.000000,600.000000) scale(0.100000,-0.100000)"
fill="#000000" stroke="none">
<path d="M685 5994 c-66 -14 -152 -38 -162 -47 -7 -5 -13 -7 -13 -4 0 11 -123
-55 -176 -93 -107 -79 -181 -166 -245 -285 -23 -44 -42 -82 -42 -85 0 -3 -1
-9 -3 -15 -41 -117 -39 13 -41 -2435 -1 -1514 1 -2324 8 -2360 48 -263 205
-473 439 -587 176 -86 -71 -78 2550 -78 2241 0 2328 1 2395 19 39 10 76 23 83
28 6 6 12 8 12 5 0 -3 35 12 77 34 224 116 368 313 422 574 12 59 10 4642 -2
4690 -87 338 -294 546 -632 632 -30 8 -4633 14 -4670 7z m1745 -1589 c91 -30
194 -148 216 -245 11 -49 5 -136 -11 -184 -36 -105 -106 -179 -203 -215 -73
-27 -114 -32 -182 -19 -117 21 -198 84 -250 194 -64 133 -38 284 66 389 28 28
67 59 87 69 78 36 187 41 277 11z m1389 -11 c68 -32 135 -101 168 -171 102
-220 -63 -483 -304 -486 -144 -1 -252 65 -320 196 -36 70 -42 195 -12 274 22
58 91 140 145 174 86 53 227 59 323 13z m-2203 -1713 c0 -139 10 -235 34 -326
83 -321 312 -514 685 -576 101 -17 1156 -19 1290 -2 418 51 661 268 740 658 4
17 9 95 11 175 3 80 7 150 9 156 2 8 69 11 227 10 l223 -1 0 -145 c-1 -231
-17 -338 -81 -530 -142 -424 -469 -691 -961 -784 -12 -3 -53 -8 -90 -13 -86
-10 -1340 -11 -1411 0 -111 16 -129 19 -207 38 -84 21 -236 79 -292 110 -18
11 -50 29 -70 40 -169 95 -346 292 -431 479 -64 142 -114 331 -128 490 -8 84
-12 289 -6 306 2 8 73 11 230 11 l227 0 1 -96z"/>
</g>
</svg>
