<svg width="95" height="69" viewBox="0 0 95 69" fill="none" xmlns="http://www.w3.org/2000/svg">
<path d="M66.8 0H28.2C12.6 0 0 12.6 0 28.2C0 38.7 5.8 47.9 14.4 52.8C12.9 55.9 11.1 59.4 8.8 62.4C6.8 65.1 9.3 68.8 12.6 67.9C23.5 64.9273 32.7 59.8 38.1 56.4H66.8C82.4 56.4 95 43.8 95 28.2C95 12.6 82.4 0 66.8 0ZM26.3 34.4C22.9 34.4 20.1 31.6 20.1 28.2C20.1 24.8 22.9 22 26.3 22C29.7 22 32.5 24.8 32.5 28.2C32.5 31.6 29.7 34.4 26.3 34.4ZM47.5 34.4C44.1 34.4 41.3 31.6 41.3 28.2C41.3 24.8 44.1 22 47.5 22C50.9 22 53.7 24.8 53.7 28.2C53.7 31.6 50.9 34.4 47.5 34.4ZM68.7 34.4C65.3 34.4 62.5 31.6 62.5 28.2C62.5 24.8 65.3 22 68.7 22C72.1 22 74.9 24.8 74.9 28.2C74.9 31.6 72.1 34.4 68.7 34.4Z" fill="white"/>
</svg>
