<svg width="80" height="113" viewBox="0 0 80 113" fill="none" xmlns="http://www.w3.org/2000/svg">
<path d="M18.7712 0H30.8652V5.07617H23.8287V10.1523H30.8652V15.2285H18.7712V0Z" fill="white"/>
<path d="M33.2842 0H45.3781V4.41406H38.3416V5.29688H45.3781V15.4492H33.2842V10.8145H40.3207V9.93164H33.2842V0Z" fill="white"/>
<path d="M47.7969 0H59.8908V4.41406H52.8543V5.29688H59.8908V15.4492H47.7969V10.8145H54.8333V9.93164H47.7969V0Z" fill="white"/>
<path fill-rule="evenodd" clip-rule="evenodd" d="M7.25878 103.924L39.8319 113L72.495 103.911L79.7615 22.2072H0L7.25878 103.924ZM15.75 49.0224L14.8423 39H39.8462H39.8807H64.8595L63.0569 59.2853L62.8132 61.9765L60.4668 88.3618L60.3166 90.055L39.8807 95.7398V95.7414L39.8348 95.7542L19.3806 90.055L17.9817 74.3186H22.6016H28.0054L28.7163 82.3118L39.837 85.3257L39.8462 85.3233L50.983 82.3055L52.142 69.3074H39.8462L17.5356 69.3073L16.6406 59.2852H39.8808L53.0079 59.2853L53.9165 49.0224L39.8807 49.0224H15.75Z" fill="white"/>
</svg>
