<svg width="76" height="114" viewBox="0 0 76 114" fill="none" xmlns="http://www.w3.org/2000/svg">
<g clip-path="url(#clip0)">
<path d="M19.0038 114C29.4897 114 38 105.488 38 95V76H19.0038C8.51787 76 0.00756836 84.512 0.00756836 95C0.00756836 105.488 8.51787 114 19.0038 114Z" fill="white"/>
<path d="M0.00756836 57C0.00756836 46.512 8.51787 38 19.0038 38H38V76H19.0038C8.51787 76 0.00756836 67.488 0.00756836 57Z" fill="white"/>
<path d="M0.0078125 19C0.0078125 8.512 8.51811 0 19.004 0H38.0002V38H19.004C8.51811 38 0.0078125 29.488 0.0078125 19Z" fill="white"/>
<path d="M38 0H56.9962C67.4821 0 75.9924 8.512 75.9924 19C75.9924 29.488 67.4821 38 56.9962 38H38V0Z" fill="white"/>
<path d="M75.9924 57C75.9924 67.488 67.4821 76 56.9962 76C46.5103 76 38 67.488 38 57C38 46.512 46.5103 38 56.9962 38C67.4821 38 75.9924 46.512 75.9924 57Z" fill="white"/>
</g>
<defs>
<clipPath id="clip0">
<rect width="76" height="114" fill="white"/>
</clipPath>
</defs>
</svg>
