<svg width="114" height="115" viewBox="0 0 114 115" fill="none" xmlns="http://www.w3.org/2000/svg">
<path d="M111.78 51.977L62.0349 2.23808C59.1727 -0.626722 54.5267 -0.626722 51.6609 2.23808L41.3319 12.5681L54.4339 25.6701C57.4798 24.6417 60.971 25.3312 63.3978 27.7585C65.8372 30.2009 66.5218 33.7219 65.4676 36.778L78.0956 49.406C81.1507 48.3532 84.6756 49.0334 87.1151 51.4772C90.5257 54.8868 90.5257 60.4117 87.1151 63.8222C83.704 67.2338 78.1791 67.2338 74.7661 63.8222C72.2016 61.2557 71.5673 57.4877 72.8662 54.328L61.0892 42.551L61.0882 73.542C61.9197 73.9536 62.7044 74.503 63.3973 75.1929C66.8069 78.6021 66.8069 84.126 63.3973 87.5409C59.9867 90.95 54.4593 90.95 51.0523 87.5409C47.6422 84.1263 47.6422 78.6024 51.0523 75.1929C51.895 74.3516 52.8702 73.7149 53.9107 73.2881V42.0091C52.8697 41.5841 51.8957 40.9521 51.0517 40.1041C48.4687 37.5231 47.8466 33.7321 49.1713 30.5602L36.2553 17.6422L2.14928 51.7472C-0.716425 54.6142 -0.716425 59.2602 2.14928 62.1252L51.8913 111.864C54.7551 114.729 59.3995 114.729 62.2673 111.864L111.779 62.3602C114.644 59.494 114.644 54.8466 111.779 51.9812" fill="#F1F1FF"/>
</svg>
