<svg width="112" height="114" viewBox="0 0 112 114" fill="none" xmlns="http://www.w3.org/2000/svg">
<path d="M84.4858 32.2715C80.9105 28.6166 77.0243 25.8172 72.9049 23.8731C68.7856 21.9291 63.5781 20.9959 57.5933 20.9959C52.7745 20.9959 48.1888 21.8513 43.9139 23.5621C39.6391 25.2729 35.9084 27.6835 32.7217 30.794C29.4573 33.9045 26.8924 37.7149 25.0271 42.1473C23.1617 46.5798 22.229 51.4789 22.229 56.9222C22.229 62.3656 23.1617 67.2647 25.0271 71.6971C26.8924 76.1296 29.4573 79.8622 32.7217 82.9727C35.9861 86.0832 39.7946 88.5716 44.0694 90.2824C48.3442 91.9932 53.0076 92.8486 57.9042 92.8486C63.1117 92.8486 67.6974 92.1487 71.5836 90.6712C75.4698 89.1937 78.8119 87.1719 81.61 84.6835C83.4754 82.9727 85.1853 80.8731 86.662 78.3847C88.1388 75.8186 89.3046 73.0191 90.1596 69.9086H57.2824V51.2456H110.912C111.223 52.4898 111.456 53.9673 111.689 55.8336C111.922 57.6999 112 59.4106 112 61.1992C112 68.5866 110.912 75.2742 108.736 81.4175C106.559 87.5607 103.217 92.9263 98.8647 97.6699C93.9681 102.88 88.1388 106.846 81.2991 109.723C74.4594 112.6 66.6093 114 57.8265 114C49.8987 114 42.4372 112.6 35.4421 109.723C28.4469 106.846 22.3067 102.88 17.0215 97.8254C11.814 92.7708 7.69466 86.7831 4.5857 79.8622C1.47675 72.9413 0 65.2428 0 57C0 48.7572 1.55448 41.1364 4.5857 34.1378C7.61693 27.1392 11.7363 21.1514 17.0215 16.0969C22.229 11.0423 28.3692 7.15416 35.4421 4.27694C42.5149 1.39973 49.9764 0 57.8265 0C66.8425 0 74.848 1.55525 81.7654 4.66576C88.6829 7.77626 94.6676 12.0532 99.7196 17.4966L84.4858 32.2715Z" fill="white"/>
</svg>
