<svg width="80" height="113" viewBox="0 0 80 113" fill="none" xmlns="http://www.w3.org/2000/svg">
<path d="M7.42114 0H12.4955V5.03203H17.1374V0H22.212V15.2382H17.1376V10.1356H12.4958V15.2382H7.42136V0H7.42114Z" fill="white"/>
<path d="M28.885 5.05322H24.4177V0H38.4291V5.05322H33.9598V15.2382H28.8852V5.05322H28.885Z" fill="white"/>
<path d="M40.6528 0H45.944L49.1989 5.35426L52.4504 0H57.7435V15.2382H52.69V7.68532L49.1989 13.1034H49.1116L45.6179 7.68532V15.2382H40.6528V0Z" fill="white"/>
<path d="M60.269 0H65.345V10.2013H72.4811V15.2382H60.269V0Z" fill="white"/>
<path fill-rule="evenodd" clip-rule="evenodd" d="M79.7615 22.2072L72.495 103.911L39.8319 113L7.25878 103.924L0 22.2072H79.7615ZM25.755 49.0224L39.8462 49.0224H63.9334H63.9655L64.1658 46.7696L64.6208 41.6888L64.8596 39H39.8462L39.8462 49.0224V48.9979V47.1113V45.2247L39.8462 39H14.8423L15.0813 41.6888L17.5355 69.3074H39.8807L52.142 69.3073L50.9829 82.3054L39.8462 85.3224V90.5358V95.7493V85.3224L39.837 85.3257L28.7163 82.3118L28.0054 74.3186H22.6016H17.9817L19.3806 90.055L39.8348 95.7542L39.8807 95.7414L39.8462 95.7493L60.3166 90.0549L60.4668 88.3617L62.8132 61.9764L63.0569 59.2852H60.3661H39.8462L26.6675 59.2853L25.755 49.0224Z" fill="white"/>
</svg>
