<svg width="112" height="112" viewBox="0 0 112 112" fill="none" xmlns="http://www.w3.org/2000/svg">
<path fill-rule="evenodd" clip-rule="evenodd" d="M0 0H112V112H0V0ZM38.2556 88.5876C39.9089 91.5209 41.4129 94.0009 45.0289 94.0009C48.4867 94.0009 50.668 92.648 50.668 87.3876V51.6009H61.1925V87.5298C61.1925 98.4275 54.8031 103.388 45.4769 103.388C37.0502 103.388 32.1702 99.0267 29.6885 93.7742L38.2556 88.5876ZM85.8165 94.0667C80.6253 94.0667 77.6902 91.3591 75.4342 87.6756L66.8813 92.6444C69.9711 98.7493 76.2858 103.407 86.06 103.407C96.0564 103.407 103.5 98.216 103.5 88.7404C103.5 79.9511 98.4511 76.0418 89.5089 72.2071L86.8778 71.08C82.3622 69.1244 80.4067 67.8462 80.4067 64.6889C80.4067 62.1342 82.3604 60.1787 85.4431 60.1787C88.4653 60.1787 90.412 61.4533 92.2164 64.6889L100.412 59.4267C96.9453 53.3289 92.1347 51 85.4431 51C76.044 51 70.0298 57.0089 70.0298 64.9022C70.0298 73.4711 75.0751 77.5244 82.6698 80.76L85.3009 81.8889C90.1009 83.9884 92.9631 85.2667 92.9631 88.8755C92.9631 91.8871 90.1773 94.0667 85.8165 94.0667Z" fill="white"/>
</svg>
