<svg width="110" height="114" viewBox="0 0 110 114" fill="none" xmlns="http://www.w3.org/2000/svg">
<path d="M108.683 53.8099L59.7438 4.75502L55 0L18.1606 36.9266L1.31709 53.8099C0.473716 54.6563 0 55.8037 0 57C0 58.1963 0.473716 59.3436 1.31709 60.1901L34.974 93.9266L55 114L91.8394 77.0734L92.4099 76.5016L108.683 60.1901C109.526 59.3436 110 58.1963 110 57C110 55.8037 109.526 54.6563 108.683 53.8099ZM55 73.8532L38.1866 57L55 40.1468L71.8134 57L55 73.8532Z" fill="white"/>
<path d="M55 40.0536C49.6997 34.7469 46.7121 27.5561 46.6895 20.0517C46.667 12.5472 49.6113 5.33863 54.8796 0L18 36.9054L38.0724 57L55 40.0536Z" fill="url(#paint0_linear)"/>
<path d="M71.9113 57L55 73.885C57.6391 76.5184 59.7326 79.6452 61.161 83.0868C62.5893 86.5283 63.3245 90.2172 63.3245 93.9425C63.3245 97.6678 62.5893 101.357 61.161 104.798C59.7326 108.24 57.6391 111.367 55 114L92 77.0575L71.9113 57Z" fill="url(#paint1_linear)"/>
<path fill-rule="evenodd" clip-rule="evenodd" d="M55 73.885C55.0088 73.8937 55.0175 73.9025 55.0263 73.9113ZM55 73.885L71.9113 57L92 77.0575L55.0119 113.988C57.6454 111.357 59.7348 108.235 61.161 104.798C62.5893 101.357 63.3245 97.6678 63.3245 93.9425C63.3245 90.2172 62.5893 86.5283 61.161 83.0868C59.7461 79.6776 57.6784 76.5773 55.0743 73.9594C55.0583 73.9433 55.0423 73.9273 55.0263 73.9113" fill="url(#paint2_linear)"/>
<defs>
<linearGradient id="paint0_linear" x1="51.9906" y1="22.9868" x2="28.4315" y2="46.5199" gradientUnits="userSpaceOnUse">
<stop offset="0.18" stop-color="#C6C6C6"/>
<stop offset="1" stop-color="white"/>
</linearGradient>
<linearGradient id="paint1_linear" x1="1489.86" y1="3492.96" x2="2302.56" y2="2965.42" gradientUnits="userSpaceOnUse">
<stop offset="0.177083" stop-color="#C6C6C6"/>
<stop offset="1" stop-color="white"/>
</linearGradient>
<linearGradient id="paint2_linear" x1="57.5" y1="90.5" x2="83" y2="66.5" gradientUnits="userSpaceOnUse">
<stop stop-color="#C6C6C6"/>
<stop offset="1" stop-color="white"/>
</linearGradient>
</defs>
</svg>
