<svg width="52" height="52" viewBox="0 0 52 52" fill="none" xmlns="http://www.w3.org/2000/svg">
<path fill-rule="evenodd" clip-rule="evenodd" d="M48.1483 0.00358746H3.83703C1.75698 -0.0199044 0.0253522 1.67151 0 3.75158V48.2475C0.0244219 50.3288 1.75582 52.022 3.83703 51.9997H48.1483C50.2346 52.026 51.9721 50.3329 52 48.2475V3.74856C51.9721 1.66406 50.2323 -0.0271165 48.1483 0.000329406V0.00358746ZM36.6024 44.3076H44.3073L44.3106 30.6954C44.3106 24.0127 42.8706 18.8762 35.0615 18.8762C32.0801 18.7654 29.2695 20.3092 27.7635 22.8842H27.6598V19.4932H20.2632V44.3067H27.9679V32.0316C27.9679 28.7946 28.582 25.6597 32.5951 25.6597C36.551 25.6597 36.6024 29.3638 36.6024 32.2412V44.3076ZM15.4218 44.3076H7.70894V19.4932H15.4218V44.3076ZM7.09722 11.6302C7.09722 14.0831 9.11657 16.1013 11.5695 16.1013C14.0219 16.1011 16.0398 14.0817 16.0398 11.6293C16.0394 9.17681 14.0212 7.15884 11.5685 7.15884C9.11563 7.15884 7.09722 9.17728 7.09722 11.6302Z" fill="white"/>
</svg>
