<svg width="50" height="112" viewBox="0 0 50 112" fill="none" xmlns="http://www.w3.org/2000/svg">
<path d="M49.1094 44.5416C43.2409 18.5292 31.0095 11.6043 27.8894 6.70917C26.6028 4.55273 25.463 2.31121 24.4779 0C24.3131 2.31085 24.0103 3.76668 22.0554 5.51908C18.1303 9.03542 1.46019 22.6848 0.057277 52.2406C-1.24981 79.7975 20.2193 96.7899 23.0558 98.5462C25.2369 99.6246 27.8932 98.5693 29.1888 97.5795C39.5381 90.4428 53.6784 71.4168 49.1208 44.5416" fill="white"/>
<path d="M25.2209 84C24.699 90.8078 24.3251 94.7633 23 98.6535C23 98.6535 23.8698 105.135 24.4806 112H26.6422C27.1578 107.165 27.9451 102.366 29 97.6271C26.2017 96.1971 25.3282 89.9736 25.2209 84Z" fill="#DCDCDC"/>
<path d="M29.489 97C26.5899 95.6537 25.7513 89.3493 25.6223 83.4759C26.3393 73.7872 26.5482 64.0674 26.2484 54.3566C26.0966 49.2613 26.3205 7.16328 25 1C25.9033 3.08744 26.9441 5.11203 28.1153 7.06031C31.2041 11.9116 43.3164 18.769 49.122 44.5282C53.6452 71.0959 39.7229 89.8871 29.489 97Z" fill="#DCDCDC"/>
</svg>
