<svg width="101" height="113" viewBox="0 0 101 113" fill="none" xmlns="http://www.w3.org/2000/svg">
<path d="M50.1384 113C48.6251 113 47.1223 112.603 45.7956 111.839L31.9721 103.655C29.9075 102.501 30.9149 102.092 31.5959 101.857C34.3488 100.893 34.9074 100.675 37.8458 99.0066C38.1547 98.8304 38.5589 98.8926 38.875 99.0791L49.4947 105.381C49.8782 105.588 50.4224 105.588 50.7779 105.381L92.185 81.4798C92.5685 81.2621 92.8173 80.8165 92.8173 80.3604V32.579C92.8173 32.1022 92.5685 31.6772 92.1767 31.4388L50.7862 7.55849C50.4027 7.33046 49.8948 7.33046 49.5113 7.55849L8.12907 31.4388C7.72795 31.6669 7.47298 32.1125 7.47298 32.5686V80.35C7.47298 80.8061 7.72173 81.2414 8.11559 81.4591L19.4546 88.0096C25.6113 91.0879 29.3737 87.4603 29.3737 83.8119V36.6523C29.3737 35.9786 29.9023 35.4604 30.576 35.4604H35.8205C36.4735 35.4604 37.0125 35.9786 37.0125 36.6523V83.8326C37.0125 92.0415 32.5349 96.7574 24.751 96.7574C22.3567 96.7574 20.4704 96.7574 15.2051 94.1662L4.34283 87.9059C1.65836 86.3512 0 83.4491 0 80.35V32.5686C0 29.4592 1.65836 26.557 4.34283 25.0231L45.7914 1.11162C48.4137 -0.370539 51.8963 -0.370539 54.4978 1.11162L95.8946 25.0334C98.5687 26.5778 100.237 29.4695 100.237 32.579V80.3604C100.237 83.4595 98.5687 86.3512 95.8946 87.9059L54.4978 111.817C53.1711 112.584 51.6682 112.978 50.1343 112.978" fill="white"/>
<path d="M62.9285 80.0755C44.8109 80.0755 41.0122 71.7588 41.0122 64.7833C41.0122 64.12 41.547 63.5914 42.2114 63.5914H47.5596C48.1504 63.5914 48.6479 64.0215 48.7412 64.6051C49.5496 70.0548 51.9543 72.8036 62.9098 72.8036C71.6369 72.8036 75.3475 70.8322 75.3475 66.2043C75.3475 63.5406 74.2903 61.5609 60.7332 60.2342C49.3942 59.1148 42.3876 56.6169 42.3876 47.5478C42.3876 39.1938 49.4356 34.2188 61.2411 34.2188C74.4976 34.2188 81.0688 38.8207 81.898 48.7086C81.9291 49.0507 81.8047 49.3824 81.5767 49.6311C81.3487 49.8695 81.0274 50.0146 80.6957 50.0146H75.3164C74.7567 50.0146 74.2696 49.6207 74.1555 49.0818C72.8599 43.3501 69.7298 41.5155 61.2203 41.5155C51.6952 41.5155 50.5861 44.8322 50.5861 47.3198C50.5861 50.3359 51.8921 51.2169 64.7444 52.9167C77.4723 54.6062 83.5149 56.9901 83.5149 65.9348C83.5149 74.9522 75.9901 80.1242 62.8683 80.1242L62.9285 80.0755Z" fill="white"/>
</svg>
