<svg width="117" height="114" viewBox="0 0 117 114" fill="none" xmlns="http://www.w3.org/2000/svg">
<path fill-rule="evenodd" clip-rule="evenodd" d="M20.7188 0H96.2812C107.738 0 117 9.25641 117 20.7051V93.2949C117 104.744 107.738 114 96.2812 114H20.7188C9.2625 114 0 104.744 0 93.2949V20.7051C0 9.25641 9.2625 0 20.7188 0ZM26.5424 79.8514V29.7206C26.5424 29.3796 26.6887 29.1847 27.0299 29.1847C27.8587 29.1847 28.6387 29.1847 29.7599 29.136C30.3625 29.1109 30.9779 29.0987 31.613 29.0862C32.2111 29.0744 32.8266 29.0622 33.465 29.0386C34.1457 29.0134 34.8526 29.0012 35.5856 28.9886C36.2697 28.9768 36.9766 28.9647 37.7062 28.9411C39.2174 28.8924 40.6799 28.8924 42.1424 28.8924C46.1399 28.8924 49.4549 29.3796 52.1849 30.4027C54.6224 31.2309 56.8649 32.595 58.7174 34.3975C60.2774 35.9565 61.4962 37.8565 62.2762 39.9514C63.0075 41.9975 63.3975 44.0924 63.3975 46.2847C63.3975 50.4745 62.4225 53.9334 60.4725 56.6616C58.5225 59.3899 55.7924 61.436 52.6237 62.6052C49.3087 63.8232 45.6524 64.2617 41.6549 64.2617C40.4849 64.2617 39.7049 64.2616 39.2174 64.2129C38.7299 64.1642 38.0475 64.1642 37.1212 64.1642V79.8027C37.17 80.1437 36.9262 80.436 36.5849 80.4847H36.3899H27.1275C26.7375 80.4847 26.5424 80.2899 26.5424 79.8514ZM37.17 54.9565V38.5873C37.5112 38.5386 38.1937 38.4899 39.1687 38.5386C40.095 38.4899 41.2162 38.4899 42.4837 38.4899C44.4824 38.4411 46.4325 38.7334 48.2362 39.4642C49.65 40.0001 50.82 40.9745 51.6487 42.2411C52.4287 43.5565 52.8187 45.0668 52.77 46.577C52.77 48.7206 52.2824 50.377 51.2587 51.595C50.1862 52.8129 48.8212 53.7386 47.2612 54.177C45.4574 54.7616 43.5562 55.054 41.6549 55.054H39.0712C38.5282 55.054 37.9432 55.012 37.3162 54.967L37.17 54.9565ZM89.2 50.2309C90.8575 50.5719 92.4175 51.1078 93.88 51.8873C94.075 51.9847 94.3188 51.9847 94.7575 51.8873C94.9038 51.7898 95.0013 51.595 95.0013 51.4001V43.4591C95.0013 43.2642 94.9525 43.0693 94.9038 42.8745C94.8063 42.6796 94.6113 42.4847 94.4163 42.436C93.1 41.9001 91.6863 41.5104 90.2238 41.3155C88.225 41.0232 86.1775 40.877 84.1788 40.877C80.7175 40.877 77.8412 41.4129 75.55 42.5821C73.4537 43.5565 71.65 45.1155 70.4312 47.0642C69.3587 48.8668 68.7738 50.8642 68.7738 52.9591C68.725 54.6642 69.115 56.3693 69.895 57.9283C70.8212 59.5847 72.0887 60.9975 73.6 62.0693C75.745 63.5309 78.0363 64.7001 80.5225 65.577C82.9113 66.5027 84.52 67.2334 85.3 67.8668C86.08 68.5001 86.47 69.1334 86.47 69.8155C86.47 70.6924 85.9338 71.5206 85.1538 71.8616C84.2763 72.3001 82.96 72.5437 81.1075 72.5437C79.1575 72.5437 77.2075 72.3001 75.355 71.8129C73.21 71.3257 71.2112 70.5462 69.31 69.4257C69.1637 69.3283 69.0175 69.2796 68.8712 69.377C68.725 69.4745 68.6762 69.6693 68.6762 69.8155V78.2924C68.6275 78.6822 68.8712 79.0232 69.2125 79.218C70.7725 79.9488 72.4787 80.4847 74.185 80.777C76.3787 81.2155 78.5725 81.4104 80.815 81.4104C84.325 81.4104 87.25 80.8745 89.6388 79.8514C91.8325 78.9745 93.7338 77.4642 95.0988 75.5155C96.3663 73.6155 97.0488 71.3257 97 69.036C97.0488 67.2822 96.6588 65.577 95.8788 64.0181C94.9525 62.3616 93.6363 60.9975 92.0275 59.9745C89.6875 58.5129 87.1525 57.295 84.52 56.418C83.35 55.9309 82.18 55.395 81.0587 54.8104C80.425 54.4693 79.84 54.0309 79.4013 53.495C79.1088 53.1052 78.9137 52.6668 78.9137 52.2283C78.9137 51.7898 79.06 51.3027 79.3037 50.9129C79.645 50.4257 80.1813 50.0847 80.815 49.9386C81.7413 49.695 82.765 49.5488 83.74 49.5975C85.5925 49.5975 87.3962 49.8411 89.2 50.2309Z" fill="white"/>
</svg>
