<svg width="119" height="119" viewBox="0 0 119 119" fill="none" xmlns="http://www.w3.org/2000/svg">
<path d="M83.7742 5.00171C80.2042 5.00171 77.1083 5.70827 74.2542 6.42413C79.2559 8.56241 82.3518 11.1841 84.0159 12.3741C87.8276 15.7024 89.9659 19.04 93.7776 24.5159C94.4842 25.7059 95.6742 27.37 96.3901 29.9824C97.1059 32.3624 97.1059 34.2683 97.1059 36.1741C97.1059 38.7959 96.8642 40.9341 96.6225 43.0724C96.3901 44.7459 96.3901 45.4617 96.1576 45.9359C96.1576 46.1776 96.1576 46.41 95.9159 46.8841C95.9159 48.0741 95.9159 48.5576 96.1576 49.5059C96.1576 50.4541 96.3901 51.4117 96.3901 53.0759C96.6318 56.1717 96.6318 58.31 96.1576 60.9224V61.88C95.6742 64.0183 95.2001 66.1659 94.0101 68.0624C94.2518 68.5459 94.4842 68.7783 94.7259 69.2524C95.9159 67.5883 96.8642 65.9241 97.8125 64.0276C100.676 58.7841 102.34 54.2659 103.53 50.9376C105.668 44.7459 106.858 40.2183 107.574 36.89C109.238 29.75 109.48 26.4217 108.764 22.61C108.764 21.42 108.29 19.2724 107.1 17.1341C104.478 12.3741 100.434 10.2358 97.5801 8.80413C95.6742 7.85585 90.6725 5.23413 83.7742 5.00171ZM32.2137 6.05226C29.4712 5.99647 26.1243 6.30327 22.3683 8.08827C21.1783 8.57171 17.6083 10.2358 14.7542 14.0383C12.8483 16.4183 11.4259 19.9883 10.7101 24.0324C9.9942 27.6024 9.75248 31.8976 11.1842 39.9859C12.1325 45.6941 13.0901 49.5059 14.9959 57.3524C15.2376 58.31 16.6601 62.5959 19.7559 72.1159L19.9883 72.59C20.4718 74.2541 21.8942 77.8241 24.9901 81.3941C27.1283 83.7741 29.0342 85.2059 30.7076 85.2059H31.1725C34.2683 85.2059 36.4159 82.8259 38.3125 80.92C38.3125 80.6783 42.8401 75.2117 44.5042 73.3059C44.2625 73.0641 43.7976 73.0641 43.5559 72.8224C40.7018 71.1583 38.5542 68.5459 36.8901 65.6824C34.0359 60.4483 34.2683 55.2141 34.7425 52.5924L34.9842 48.5576C34.0359 42.1241 34.2776 35.9417 35.4676 29.75C36.4159 24.5158 37.6059 19.2817 41.8825 13.8058C43.3142 11.9 44.9783 10.2358 46.6425 9.04585C42.8401 7.38171 38.7959 6.42413 34.7425 6.19171C33.9708 6.12663 33.1248 6.07085 32.2137 6.05226ZM62.1125 8.08827C60.9225 8.08827 59.7325 8.08827 58.5425 8.32999C53.7825 9.27827 49.2642 11.9 45.6942 16.4183C42.1242 20.9458 41.1759 25.2224 40.2276 30.2241C39.7442 32.13 39.7442 33.7941 39.5025 35.7C40.9342 34.51 42.8401 33.0783 45.6942 32.3624C47.3583 31.8883 51.6442 30.4658 55.2142 32.6041C56.4042 33.32 58.0683 34.7517 59.7325 38.7959C63.3025 48.79 59.7418 59.0259 59.2676 59.9741C59.0259 60.9224 58.5518 61.6383 58.3101 62.1124C57.8359 63.3024 57.3618 64.26 56.8876 66.1659C56.6459 67.83 56.4042 69.2617 56.4042 70.9259C57.1201 70.9259 57.8359 71.1583 58.5425 71.6324C59.7325 72.8224 59.9742 74.4959 60.2159 75.2024C60.6901 79.0141 60.6901 83.7741 60.6901 88.5341C60.6901 92.3459 60.6901 95.9159 60.9225 98.2959C61.4059 103.772 63.0701 107.574 65.4501 109.48C67.1142 110.912 69.2525 110.902 70.4425 111.144H70.9259C74.4959 111.144 80.2042 108.764 82.3425 105.436C83.5325 103.53 84.0159 101.866 84.4901 99.4859C84.7318 98.0541 84.7225 97.3476 84.9642 95.9159C84.9642 95.2 85.2059 94.01 85.2059 92.5876C85.2059 91.3976 85.4383 89.9659 85.6801 88.2924C85.9218 84.2483 86.6283 79.4976 86.8701 76.8759C87.1118 73.78 88.5342 71.1583 89.7242 69.4941C88.0601 69.2524 86.3959 67.83 85.4476 65.45C84.0159 62.8283 83.7742 62.1124 83.5325 60.9224C83.3001 59.9741 82.8259 58.7841 81.1525 55.2141C77.5825 47.1259 77.1176 44.7459 77.1176 42.84C76.8759 40.2183 76.6342 36.6576 79.4976 34.2776C83.7742 30.4658 89.2501 30.7076 92.1042 31.6559V31.1724C91.6301 29.2759 90.6818 27.8441 89.9659 26.8959C86.3959 21.42 84.4901 18.5658 81.1525 15.7117C79.7301 14.5217 76.1601 11.6583 70.9259 9.76171C68.5459 9.04585 65.6825 8.08827 62.1125 8.08827ZM88.4226 35.9975C86.6934 35.8766 84.4901 36.1741 82.5842 37.8476C81.6359 38.7959 81.6359 40.7017 81.8776 42.3659C81.8776 43.5559 82.1101 45.22 85.6801 53.3176C87.3442 57.12 87.8183 58.31 88.0601 59.2676C88.3018 60.2159 88.5342 60.69 89.9659 63.3024C90.2076 63.7859 90.4401 64.26 90.9142 64.7341C91.3883 64.0183 91.6301 62.8283 91.8625 60.9224L92.1042 60.2159C92.5783 58.0776 92.3459 56.4041 92.3459 53.55C92.3459 52.1183 92.1042 51.17 92.1042 50.4541C91.8625 49.2641 91.8625 48.3159 91.8625 46.8841C91.3883 46.1683 91.3883 45.9359 91.6301 45.4524C91.6301 44.9783 91.8625 44.2717 92.1042 42.84C92.3459 40.9341 92.5876 39.27 92.5876 37.3641C92.1042 37.1224 91.8718 36.89 91.3976 36.6576C91.3976 36.6576 90.1426 36.1184 88.4226 35.9975ZM51.2072 36.9365C49.6919 36.7598 47.9533 37.2526 46.8842 37.6059C44.2625 38.3217 42.6076 39.9859 41.4176 40.9341C40.7018 41.65 39.9859 42.3659 39.2701 43.3141C39.2701 44.9783 39.5025 46.6517 39.7442 48.3159V48.5576L39.2701 53.3176C38.7959 55.4559 38.5542 59.5 40.9342 63.5441C42.1242 65.9241 43.7976 67.83 45.9359 69.02C47.3676 69.9683 49.2642 70.6841 51.4025 71.1676C51.4025 69.4941 51.6442 67.5883 51.8859 65.9241C52.3601 63.5441 52.8342 62.3541 53.5501 60.9224C53.7918 60.2159 54.0242 59.7417 54.5076 59.0259C54.7401 58.31 58.0683 49.2641 54.9725 40.9341C54.2659 39.0283 53.5501 37.8383 52.5925 37.3641C52.1834 37.1224 51.7 36.9923 51.2072 36.9365ZM86.1263 38.2938C86.7492 38.2566 87.3442 38.3124 87.5859 38.5541C88.3018 39.0283 87.3442 40.2183 87.1025 40.46C86.8701 40.7017 86.3959 41.1759 85.6801 41.4176C84.7318 41.65 84.0159 40.9341 83.7742 40.9341C83.5325 40.6924 82.8259 39.9859 83.0676 39.27C83.3001 38.7959 83.5418 38.7959 84.4901 38.5541C84.8433 38.4333 85.5034 38.3217 86.1263 38.2938ZM50.3519 40.2648C51.1515 40.209 51.8208 40.5158 52.3601 40.6924C53.0759 40.9341 53.7825 41.1759 53.7825 41.65C54.0242 42.3659 53.3176 42.84 53.0759 43.0724C52.3601 43.7883 51.1701 43.7976 51.1701 43.7976C49.9801 43.7976 49.2642 43.0817 48.7901 42.3659C48.5483 42.1241 48.3159 41.65 48.5576 41.1759C48.7901 40.7017 49.2642 40.46 49.5059 40.46C49.8034 40.3391 50.0823 40.2834 50.3519 40.2648ZM94.0101 71.4C92.8201 73.0641 91.1559 75.2117 90.9142 78.0659C90.9142 78.54 90.9142 78.7817 90.6725 79.2559C92.5783 79.73 94.2518 79.73 95.9159 79.4976C99.7276 79.0141 102.34 77.1083 102.814 76.6341C104.478 75.4441 106.626 73.0641 106.142 72.1159C105.91 71.6417 105.194 71.8741 101.382 72.1159C100.434 72.1159 97.5801 72.8317 95.6742 72.3576H95.2001C94.7259 72.1159 94.2518 71.8741 94.0101 71.4ZM52.5925 76.16C52.1183 76.8759 51.4118 77.35 50.9376 77.8241C49.0318 79.0141 46.6425 79.9717 44.2625 80.4459C42.1242 81.1617 40.9342 81.1617 40.9342 81.8776C40.6925 82.8259 43.0725 84.0159 44.2625 84.49C48.3159 86.1541 52.3601 85.2059 53.0759 84.9641C53.5501 84.7224 54.7401 84.2483 55.9301 83.5324C55.9301 80.92 55.6976 78.54 55.4559 76.6341V76.3924H55.2142C54.4983 76.3924 53.5501 76.4017 52.5925 76.16Z" fill="white"/>
</svg>
