<svg width="114" height="114" viewBox="0 0 114 114" fill="none" xmlns="http://www.w3.org/2000/svg">
<path fill-rule="evenodd" clip-rule="evenodd" d="M85.5 14.25C85.5 6.37994 72.7401 0 57 0C41.2599 0 28.5 6.37994 28.5 14.25V25.65H57V28.5H28.5V64.6675C29.487 62.4831 30.7727 60.767 32.4192 59.4498C34.9442 57.4298 38.1437 56.49 41.9328 56.0307C45.6923 55.575 50.2164 55.575 55.4964 55.575H55.575C61.6592 55.575 66.5583 55.5731 70.5386 55.1381C74.5162 54.7034 77.3806 53.8521 79.4862 52.2924C81.5552 50.7599 83.0631 48.4131 84.0545 44.6165C85.0542 40.7878 85.5 35.5899 85.5 28.5V14.25ZM41.3251 19.5226C44.237 19.5226 46.5976 17.162 46.5976 14.2501C46.5976 11.3381 44.237 8.97757 41.3251 8.97757C38.4132 8.97757 36.0526 11.3381 36.0526 14.2501C36.0526 17.162 38.4132 19.5226 41.3251 19.5226Z" fill="white"/>
<path fill-rule="evenodd" clip-rule="evenodd" d="M57 114C72.7401 114 85.5 107.62 85.5 99.75V88.35H57V85.5H85.5V49.0966C84.4378 51.4145 83.0258 53.2173 81.1826 54.5826C78.4788 56.5854 75.0198 57.5153 70.8482 57.9712C66.6963 58.425 61.6449 58.425 55.6491 58.425H55.575C50.2013 58.425 45.8454 58.4273 42.2758 58.86C38.7173 59.2913 36.1277 60.1327 34.1996 61.6752C32.2924 63.201 30.8585 65.554 29.9047 69.3691C28.9453 73.2068 28.5 78.4126 28.5 85.5V99.75C28.5 107.62 41.2599 114 57 114ZM72.6751 105.023C75.587 105.023 77.9476 102.662 77.9476 99.7501C77.9476 96.8381 75.587 94.4776 72.6751 94.4776C69.7632 94.4776 67.4026 96.8381 67.4026 99.7501C67.4026 102.662 69.7632 105.023 72.6751 105.023Z" fill="white"/>
<path d="M85.5 28.5H14.25C6.37994 28.5 0 41.2599 0 57C0 72.7401 6.37994 85.5 14.25 85.5H25.65C25.65 78.3374 26.0953 72.8557 27.1398 68.6778C28.19 64.4772 29.8733 61.4865 32.4192 59.4498C34.9442 57.4298 38.1437 56.49 41.9328 56.0307C45.6922 55.575 50.2164 55.575 55.4964 55.575H55.575C61.6591 55.575 66.5583 55.5731 70.5385 55.1381C74.5162 54.7034 77.3806 53.8521 79.4862 52.2924C81.5551 50.7599 83.0631 48.4131 84.0544 44.6165C85.0542 40.7878 85.5 35.59 85.5 28.5Z" fill="white"/>
<path d="M99.75 28.5H88.35C88.35 35.66 87.9052 41.1497 86.812 45.3366C85.7103 49.5557 83.923 52.5526 81.1826 54.5826C78.4788 56.5854 75.0198 57.5153 70.8482 57.9713C66.6963 58.425 61.6449 58.425 55.649 58.425H55.575C50.2012 58.425 45.8454 58.4273 42.2758 58.86C38.7172 59.2913 36.1277 60.1327 34.1996 61.6752C32.2924 63.201 30.8585 65.554 29.9047 69.3691C28.9453 73.2068 28.5 78.4126 28.5 85.5H99.75C107.62 85.5 114 72.7401 114 57C114 41.2599 107.62 28.5 99.75 28.5Z" fill="white"/>
</svg>
