<svg width="128" height="115" viewBox="0 0 128 115" fill="none" xmlns="http://www.w3.org/2000/svg">
<path d="M128 57.0565C128 48.5699 117.381 40.5271 101.101 35.5396C104.858 18.9318 103.188 5.71871 95.8304 1.48843C94.1345 0.496143 92.1516 0.0261124 89.9861 0.0261124V5.84927C91.1863 5.84927 92.1517 6.08429 92.9605 6.52821C96.5088 8.56501 98.0481 16.3205 96.8479 26.2956C96.561 28.7502 96.0913 31.3354 95.5173 33.9728C90.4036 32.7194 84.8202 31.7532 78.9499 31.1265C75.4276 26.2956 71.775 21.9087 68.0962 18.0701C76.6017 10.1579 84.5854 5.82316 90.0122 5.82316V0C82.8373 0 73.4448 5.11812 63.9478 13.9965C54.4509 5.17034 45.0583 0.104452 37.8834 0.104452V5.92761C43.2841 5.92761 51.2939 10.2362 59.7994 18.0962C56.1468 21.9348 52.4941 26.2956 49.0241 31.1265C43.1276 31.7532 37.5442 32.7194 32.4305 33.9989C31.8304 31.3876 31.3869 28.8547 31.0738 26.4262C29.8475 16.4511 31.3608 8.69557 34.883 6.63266C35.6657 6.16263 36.6832 5.95373 37.8834 5.95373V0.130564C35.6918 0.130564 33.7089 0.600595 31.987 1.59288C24.6555 5.82316 23.0118 19.0101 26.7949 35.5657C10.5667 40.5793 0 48.596 0 57.0565C0 65.5432 10.6188 73.586 26.8993 78.5735C23.1423 95.1813 24.8121 108.394 32.1696 112.625C33.8655 113.617 35.8484 114.087 38.04 114.087C45.2148 114.087 54.6074 108.969 64.1044 100.09C73.6013 108.917 82.9939 113.983 90.1688 113.983C92.3604 113.983 94.3433 113.512 96.0652 112.52C103.397 108.29 105.04 95.1029 101.257 78.5474C117.433 73.5598 128 65.5171 128 57.0565ZM94.0302 39.6393C93.0648 43.0078 91.8646 46.4808 90.5079 49.9538C89.4382 47.8648 88.3163 45.7758 87.0901 43.6868C85.8899 41.5977 84.6115 39.5609 83.3331 37.5764C87.0379 38.1247 90.6123 38.8037 94.0302 39.6393ZM82.0807 67.4494C80.0457 70.9747 77.9584 74.3171 75.7929 77.4245C71.9054 77.764 67.9658 77.9468 64 77.9468C60.0603 77.9468 56.1207 77.764 52.2593 77.4507C50.0938 74.3432 47.9804 71.0269 45.9454 67.5278C43.9625 64.107 42.1623 60.634 40.5186 57.1349C42.1362 53.6357 43.9625 50.1366 45.9193 46.7159C47.9543 43.1906 50.0416 39.8482 52.2071 36.7408C56.0946 36.4013 60.0343 36.2185 64 36.2185C67.9397 36.2185 71.8793 36.4013 75.7407 36.7146C77.9062 39.8221 80.0196 43.1384 82.0546 46.6375C84.0375 50.0583 85.8378 53.5313 87.4815 57.0304C85.8378 60.5295 84.0375 64.0287 82.0807 67.4494ZM90.5079 64.0548C91.9168 67.5539 93.117 71.053 94.1084 74.4477C90.6906 75.2833 87.0901 75.9883 83.3592 76.5367C84.6376 74.526 85.916 72.4631 87.1162 70.348C88.3164 68.2589 89.4382 66.1438 90.5079 64.0548ZM64.0522 91.9172C61.6258 89.4103 59.1993 86.6163 56.799 83.5611C59.1472 83.6655 61.5475 83.7439 63.9739 83.7439C66.4264 83.7439 68.8528 83.6916 71.2271 83.5611C68.8789 86.6163 66.4525 89.4103 64.0522 91.9172ZM44.6408 76.5367C40.936 75.9883 37.3616 75.3094 33.9437 74.4738C34.9091 71.1052 36.1093 67.6322 37.466 64.1592C38.5357 66.2483 39.6576 68.3373 40.8838 70.4263C42.1101 72.5153 43.3624 74.5521 44.6408 76.5367ZM63.9217 22.1959C66.3482 24.7027 68.7746 27.4968 71.1749 30.552C68.8267 30.4476 66.4264 30.3692 64 30.3692C61.5475 30.3692 59.1211 30.4214 56.7468 30.552C59.095 27.4968 61.5214 24.7027 63.9217 22.1959ZM44.6148 37.5764C43.3363 39.5871 42.0579 41.65 40.8577 43.7651C39.6576 45.8541 38.5357 47.9432 37.466 50.0322C36.0571 46.5331 34.8569 43.0339 33.8655 39.6393C37.2833 38.8298 40.8838 38.1247 44.6148 37.5764ZM21.0029 70.2696C11.7668 66.3266 5.79209 61.1562 5.79209 57.0565C5.79209 52.9568 11.7668 47.7604 21.0029 43.8434C23.2466 42.8773 25.6991 42.0155 28.2299 41.206C29.7171 46.3242 31.6739 51.6512 34.1003 57.1088C31.7 62.5402 29.7693 67.8411 28.3082 72.9331C25.7252 72.1236 23.2727 71.2358 21.0029 70.2696ZM35.0395 107.585C31.4912 105.548 29.9519 97.7925 31.1521 87.8174C31.4391 85.3628 31.9087 82.7777 32.4827 80.1403C37.5964 81.3937 43.1798 82.3599 49.0501 82.9866C52.5724 87.8174 56.225 92.2044 59.9038 96.043C51.3983 103.955 43.4146 108.29 37.9878 108.29C36.8137 108.264 35.8223 108.029 35.0395 107.585ZM96.9262 87.6869C98.1525 97.662 96.6392 105.418 93.117 107.48C92.3343 107.95 91.3167 108.159 90.1166 108.159C84.7159 108.159 76.7061 103.851 68.2006 95.9908C71.8532 92.1522 75.5059 87.7913 78.976 82.9605C84.8724 82.3338 90.4558 81.3676 95.5695 80.0881C96.1696 82.7255 96.6392 85.2584 96.9262 87.6869ZM106.971 70.2696C104.727 71.2358 102.275 72.0975 99.744 72.907C98.2568 67.7889 96.3 62.4619 93.8736 57.0043C96.274 51.5728 98.2046 46.2719 99.6657 41.1799C102.249 41.9894 104.701 42.8773 106.997 43.8434C116.233 47.7865 122.208 52.9568 122.208 57.0565C122.182 61.1562 116.207 66.3527 106.971 70.2696Z" fill="#F1F1FF"/>
<path d="M64 69.1015C70.6594 69.1015 76.058 63.7029 76.058 57.0435C76.058 50.3841 70.6594 44.9855 64 44.9855C57.3405 44.9855 51.942 50.3841 51.942 57.0435C51.942 63.7029 57.3405 69.1015 64 69.1015Z" fill="#F1F1FF"/>
</svg>
