<svg width="148" height="56" viewBox="0 0 148 56" fill="none" xmlns="http://www.w3.org/2000/svg">
<path fill-rule="evenodd" clip-rule="evenodd" d="M126.97 46.7871V53.3265H138.745C141.158 53.3265 145.299 51.5561 145.443 46.6065V44.0774C145.443 39.8503 141.986 37.3574 138.745 37.3574H132.876V34.3226H144.507V27.7471H133.344C130.463 27.7471 126.61 30.1316 126.61 34.5755V36.8516C126.61 41.2955 130.427 43.5716 133.344 43.5716C141.446 43.6078 131.399 43.5716 138.889 43.5716V46.751L126.97 46.7871ZM63.8812 45.1974C63.8812 45.1974 70.1829 44.6555 70.1829 36.4903C70.1829 28.3252 62.5488 27.5665 62.5488 27.5665H48.7931V53.3265H55.707V47.1123L61.6846 53.3265H71.9113L63.8812 45.1974ZM61.2164 39.9226H55.707V34.0336H61.2525C61.2525 34.0336 62.8009 34.6116 62.8009 36.96C62.8009 39.3084 61.2164 39.9226 61.2164 39.9226ZM87.2515 27.7471H80.2296C75.2242 27.7471 73.5318 32.2994 73.5318 34.4671V53.3265H80.5537V48.8103H87.1435V53.3265H93.9493V34.4671C93.9493 28.9755 88.98 27.7471 87.2515 27.7471ZM87.1435 41.5123H80.5177V35.262C80.5177 35.262 80.5177 33.8529 82.7143 33.8529H85.1269C87.0714 33.8529 87.1074 35.262 87.1074 35.262V41.5123H87.1435Z" fill="#F1F1FF"/>
<path d="M104.464 27.7471H97.1542V53.3264H104.464V27.7471Z" fill="#F1F1FF"/>
<path fill-rule="evenodd" clip-rule="evenodd" d="M114.727 46.7148V27.7471H107.453V46.7148V53.3264H114.727H124.558V46.7148H114.727Z" fill="#F1F1FF"/>
<path fill-rule="evenodd" clip-rule="evenodd" d="M5.40137 53.3264H33.8491C33.8491 53.3264 28.4116 28.4335 46.4165 18.3535C50.3415 16.4387 62.8369 9.28516 83.2904 24.4594C83.9386 23.9174 84.5508 23.4839 84.5508 23.4839C84.5508 23.4839 65.8257 4.7329 44.9761 6.82838C34.4972 7.76774 21.6057 17.3419 14.0437 29.9871C6.48166 42.6323 5.40137 53.3264 5.40137 53.3264Z" fill="#F1F1FF"/>
<path fill-rule="evenodd" clip-rule="evenodd" d="M5.40137 53.3264H33.8491C33.8491 53.3264 28.4116 28.4335 46.4165 18.3535C50.3415 16.4387 62.8369 9.28516 83.2904 24.4594C83.9386 23.9174 84.5508 23.4839 84.5508 23.4839C84.5508 23.4839 65.8257 4.7329 44.9761 6.82838C34.4972 7.76774 21.6057 17.3419 14.0437 29.9871C6.48166 42.6323 5.40137 53.3264 5.40137 53.3264Z" fill="#F1F1FF"/>
<path fill-rule="evenodd" clip-rule="evenodd" d="M5.40137 53.3264H33.8491C33.8491 53.3264 28.4116 28.4335 46.4165 18.3535C50.3415 16.4387 62.8369 9.28515 83.2904 24.4593C83.9386 23.9174 84.5508 23.4839 84.5508 23.4839C84.5508 23.4839 65.8257 4.73289 44.9761 6.82838C34.4612 7.76773 21.5697 17.3419 14.0077 29.9871C6.44565 42.6322 5.40137 53.3264 5.40137 53.3264ZM64.6734 8.8516L64.8174 6.43096C64.4933 6.25031 63.5931 5.81677 61.3245 5.16644L61.1804 7.55096C62.3688 7.94838 63.5211 8.38193 64.6734 8.8516Z" fill="#F1F1FF"/>
<path fill-rule="evenodd" clip-rule="evenodd" d="M61.2525 16.511L61.1085 18.7871C62.2968 18.8232 63.4851 18.9678 64.6734 19.2207L64.8175 16.9807C63.5932 16.7278 62.4048 16.5832 61.2525 16.511ZM47.9289 5.23872H48.289L47.5688 3.03485C46.4525 3.03485 45.3002 3.10711 44.1119 3.25163L44.7961 5.38324C45.8404 5.27485 46.8846 5.23872 47.9289 5.23872ZM49.6574 18.5342L50.4856 21.0271C51.5299 20.5213 52.5742 20.0878 53.6185 19.7626L52.8262 17.3781C51.6019 17.7394 50.5576 18.1368 49.6574 18.5342ZM33.309 9.03227L31.6885 6.53937C30.7883 7.00905 29.852 7.51485 28.8798 8.09292L30.5362 10.6219C31.4725 10.0439 32.3727 9.50195 33.309 9.03227ZM40.691 25.2903L42.4194 27.8916C43.0316 26.9884 43.7518 26.1574 44.544 25.3265L42.9236 22.8697C42.0953 23.6284 41.3391 24.4594 40.691 25.2903ZM35.4695 36.9239L38.3863 39.2361C38.5304 37.8271 38.7824 36.4181 39.1425 35.009L36.5498 32.9497C36.0817 34.2865 35.7576 35.6232 35.4695 36.9239ZM19.6973 19.7626L17.1406 17.5226C16.2043 18.4258 15.3041 19.329 14.4759 20.2323L17.2486 22.6168C18.0048 21.6413 18.8331 20.6658 19.6973 19.7626ZM8.82234 35.9123L4.68122 34.3948C3.99704 35.9484 3.24083 37.7549 2.88074 38.7303L7.02186 40.2478C7.48998 39.0194 8.24619 37.249 8.82234 35.9123ZM34.9294 46.1007C35.0014 48.0155 35.1815 49.569 35.3615 50.6529L39.6827 52.2065C39.3586 50.7974 39.0345 49.2078 38.8185 47.5097L34.9294 46.1007Z" fill="#F1F1FF"/>
</svg>
