<svg xmlns="http://www.w3.org/2000/svg" width="31" height="29" viewBox="0 0 31 29" class="main-nav__logo__img main-nav__logo__img--icon">

  <path fill="#ffffff" fill-rule="evenodd" d="M1.11806294,10.4530136 L6.86453934,2.76621066 C6.96244645,2.63524473 7.11017516,2.55062174 7.27267603,2.53241896 L14.9991166,1.66692981 C15.0429019,1.66202512 15.0870981,1.66202512 15.1308834,1.66692981 L22.857324,2.53241896 C23.0198248,2.55062174 23.1675536,2.63524473 23.2654607,2.76621066 L29.0119371,10.4530136 C29.1779464,10.6750768 29.1675452,10.9826232 28.986912,11.192963 L15.2894975,27.1430297 C15.1830218,27.2670163 14.9961952,27.2812116 14.8722086,27.1747359 C14.8608532,27.1649842 14.8502541,27.1543851 14.8405025,27.1430297 L1.14308798,11.192963 C0.962454812,10.9826232 0.952053612,10.6750768 1.11806294,10.4530136 Z M16.7396886,3.33106824 L22.6371012,9.2173173 C22.7296394,9.30968032 22.8795315,9.30953831 22.9718945,9.21700012 C23.018963,9.1698423 23.0439802,9.10503289 23.040805,9.03848045 L22.8373262,4.77351539 C22.8342109,4.70821719 22.8846201,4.65275705 22.9499183,4.64964172 C23.007221,4.64690784 23.0582354,4.68565851 23.0709722,4.74159458 L24.1887698,9.65059388 C24.2296889,9.83029708 24.3711694,9.96992487 24.5513963,10.0084718 L27.3119643,10.5989023 C27.375891,10.612575 27.41663,10.6754816 27.4029573,10.7394083 C27.3912801,10.7940054 27.3430397,10.8330192 27.2872078,10.8330192 L24.5322432,10.8330192 C24.3614749,10.8330192 24.2039381,10.9249773 24.119968,11.0736745 L17.497951,22.8001744 C17.4497337,22.8855594 17.3414275,22.9156897 17.2560425,22.8674723 C17.1749573,22.8216831 17.1430249,22.7210285 17.1828845,22.6368699 L22.5332945,11.3401197 C22.617241,11.1628768 22.5416092,10.951141 22.3643664,10.8671946 C22.3168546,10.8446918 22.2649391,10.8330192 22.2123678,10.8330192 L7.91763215,10.8330192 C7.72151471,10.8330192 7.56253011,10.9920038 7.56253011,11.1881212 C7.56253011,11.2406925 7.5742028,11.2926079 7.59670551,11.3401197 L12.9471155,22.6368699 C12.9890888,22.7254913 12.9512729,22.8313592 12.8626515,22.8733325 C12.7784928,22.913192 12.6778382,22.8812596 12.632049,22.8001744 L6.01003201,11.0736745 C5.92606191,10.9249773 5.7685251,10.8330192 5.59775675,10.8330192 L2.84279217,10.8330192 C2.77741969,10.8330192 2.72442482,10.7800243 2.72442482,10.7146518 C2.72442482,10.6588199 2.76343856,10.6105796 2.81803566,10.5989023 L5.57860368,10.0084718 C5.7588306,9.96992487 5.90031106,9.83029708 5.94123015,9.65059388 L7.05902776,4.74159458 C7.07354181,4.67785367 7.13697998,4.63794741 7.2007209,4.65246145 C7.25665696,4.6651983 7.29540763,4.71621272 7.29267376,4.77351539 L7.089195,9.03848045 C7.08296433,9.16907686 7.18378269,9.27999713 7.3143791,9.2862278 C7.38093155,9.28940298 7.44574095,9.26438585 7.49289878,9.2173173 L13.3903114,3.33106824 C13.4393798,3.28209272 13.5188601,3.28216802 13.5678356,3.33123643 C13.6131791,3.3766659 13.616947,3.44898349 13.5765702,3.49887919 L9.22902965,8.87135929 C9.12622203,8.99840397 9.14587005,9.18473608 9.27291473,9.2875437 C9.32559096,9.33017058 9.39130131,9.35342733 9.4590644,9.35342733 L20.6709356,9.35342733 C20.8343668,9.35342733 20.966854,9.22094016 20.966854,9.05750896 C20.966854,8.98974587 20.9435972,8.92403552 20.9009703,8.87135929 L16.5534298,3.49887919 C16.5098187,3.44498681 16.5181534,3.36594468 16.5720458,3.32233366 C16.6219415,3.28195685 16.6942591,3.28572477 16.7396886,3.33106824 Z"></path>
</svg>
