<svg width="122" height="114" viewBox="0 0 122 114" fill="none" xmlns="http://www.w3.org/2000/svg">
<path fill-rule="evenodd" clip-rule="evenodd" d="M0 37.9992C0 35.9005 1.70129 34.1992 3.79994 34.1992H117.798C119.897 34.1992 121.598 35.9005 121.598 37.9992C121.598 40.0978 119.897 41.7991 117.798 41.7991H3.79994C1.70129 41.7991 0 40.0978 0 37.9992Z" fill="white"/>
<path fill-rule="evenodd" clip-rule="evenodd" d="M60.7991 0C61.8845 0 62.9181 0.464154 63.6392 1.2754L94.0387 35.4749C95.433 37.0434 95.2917 39.4452 93.7232 40.8395C92.1546 42.2338 89.7528 42.0925 88.3585 40.5239L60.7991 9.51961L33.2397 40.5239C31.8454 42.0925 29.4436 42.2338 27.875 40.8395C26.3065 39.4452 26.1652 37.0434 27.5595 35.4749L57.959 1.2754C58.6801 0.464154 59.7137 0 60.7991 0Z" fill="white"/>
<path fill-rule="evenodd" clip-rule="evenodd" d="M60.4209 0.0188584C60.7036 -0.00940623 60.9885 -0.00588923 61.2704 0.0293437L91.6699 3.82928C92.5946 3.94487 93.4446 4.39625 94.0583 5.0976L120.658 35.4971C121.864 36.8751 121.915 38.9169 120.781 40.354L63.7816 112.553C63.0609 113.466 61.962 113.998 60.799 113.998C59.6361 113.998 58.5372 113.466 57.8165 112.553L0.817445 40.354C-0.176882 39.0945 -0.272866 37.3462 0.57761 35.9854L19.5773 5.58592C20.2008 4.58839 21.2511 3.93585 22.4215 3.8188L60.4209 0.0188584ZM25.0335 11.1954L8.44024 37.7446L60.799 104.066L112.858 38.1243L89.2916 11.191L60.7519 7.62355L25.0335 11.1954Z" fill="white"/>
<path fill-rule="evenodd" clip-rule="evenodd" d="M28.925 34.498C30.8592 33.6836 33.0873 34.5914 33.9017 36.5256L64.3012 108.724C65.1156 110.659 64.2079 112.887 62.2737 113.701C60.3395 114.516 58.1113 113.608 57.2969 111.674L26.8974 39.4747C26.083 37.5405 26.9908 35.3124 28.925 34.498Z" fill="white"/>
<path fill-rule="evenodd" clip-rule="evenodd" d="M92.6732 34.498C94.6074 35.3124 95.5152 37.5405 94.7008 39.4747L64.3013 111.674C63.4869 113.608 61.2587 114.516 59.3245 113.701C57.3903 112.887 56.4825 110.659 57.2969 108.724L87.6965 36.5256C88.5109 34.5914 90.739 33.6836 92.6732 34.498Z" fill="white"/>
<path fill-rule="evenodd" clip-rule="evenodd" d="M21.878 3.91416C23.914 3.40516 25.9771 4.64303 26.4861 6.67902L34.086 37.0785C34.595 39.1145 33.3571 41.1776 31.3211 41.6866C29.2851 42.1956 27.222 40.9578 26.713 38.9218L19.1131 8.52226C18.6041 6.48628 19.842 4.42316 21.878 3.91416Z" fill="white"/>
<path fill-rule="evenodd" clip-rule="evenodd" d="M91.1985 3.7998C93.2971 3.7998 94.9984 5.5011 94.9984 7.59974V37.9993C94.9984 40.0979 93.2971 41.7992 91.1985 41.7992C89.0999 41.7992 87.3986 40.0979 87.3986 37.9993V7.59974C87.3986 5.5011 89.0999 3.7998 91.1985 3.7998Z" fill="white"/>
</svg>
