<svg width="134" height="114" viewBox="0 0 134 114" fill="none" xmlns="http://www.w3.org/2000/svg">
<path d="M41.7167 25.0401C39.9595 25.0401 38.2902 24.6886 36.7087 23.9858C35.2151 23.3707 33.8972 22.4921 32.755 21.35C31.7007 20.2078 30.866 18.846 30.251 17.2645C29.5481 15.7709 29.1967 14.1894 29.1967 12.52C29.1967 10.7628 29.5481 9.13743 30.251 7.64381C30.866 6.15019 31.7007 4.83229 32.755 3.69011C33.8972 2.54794 35.2151 1.62541 36.7087 0.922528C38.2902 0.307508 39.9595 -2.54816e-06 41.7167 -2.47135e-06C43.4739 -2.39454e-06 45.0994 0.307509 46.593 0.922528C48.1745 1.62541 49.4923 2.54794 50.5467 3.69012C51.6888 4.83229 52.5674 6.15019 53.1825 7.64382C53.8853 9.13743 54.2368 10.7628 54.2368 12.52C54.2368 14.1894 53.8853 15.7709 53.1825 17.2645C52.5674 18.846 51.6888 20.2078 50.5467 21.35C49.4923 22.4921 48.1744 23.3707 46.593 23.9858C45.0994 24.6886 43.4739 25.0401 41.7167 25.0401ZM91.165 25.0401C89.4078 25.0401 87.7385 24.6886 86.157 23.9858C84.6634 23.3707 83.3455 22.4921 82.2033 21.35C81.149 20.2078 80.2704 18.846 79.5675 17.2645C78.9525 15.7709 78.645 14.1894 78.645 12.52C78.645 10.7628 78.9525 9.13744 79.5675 7.64382C80.2704 6.1502 81.149 4.8323 82.2033 3.69012C83.3455 2.54794 84.6634 1.62541 86.157 0.92253C87.7385 0.30751 89.4078 -6.24078e-07 91.165 -5.47269e-07C92.9222 -4.70459e-07 94.5476 0.307511 96.0412 0.92253C97.6227 1.62541 98.9406 2.54794 99.9949 3.69012C101.137 4.8323 102.016 6.1502 102.631 7.64382C103.334 9.13744 103.685 10.7628 103.685 12.52C103.685 14.1894 103.334 15.7709 102.631 17.2645C102.016 18.846 101.137 20.2078 99.9949 21.35C98.9406 22.4921 97.6227 23.3707 96.0412 23.9858C94.5476 24.6886 92.9222 25.0401 91.165 25.0401Z" fill="white"/>
<path d="M16.6054 64.4783C16.6054 69.047 17.2205 73.2643 18.4505 77.1302C19.6805 80.996 21.6574 84.3347 24.381 87.1462C27.1047 90.0456 30.5752 92.286 34.7925 93.8675C39.0976 95.5368 44.2813 96.3715 50.3437 96.3715L83.0276 96.3715C89.0899 96.3715 94.2297 95.5368 98.447 93.8675C102.752 92.286 106.267 90.0456 108.99 87.1462C111.714 84.3347 113.691 80.996 114.921 77.1302C116.151 73.2643 116.766 69.047 116.766 64.4783L116.766 59.7339L133.371 59.7339L133.371 65.2691C133.371 71.7707 132.405 77.9209 130.472 83.7197C128.627 89.6063 125.684 94.7461 121.642 99.1391C117.688 103.532 112.592 107.003 106.354 109.55C100.116 112.186 92.6922 113.504 84.0819 113.504L49.2893 113.504C40.6791 113.504 33.2549 112.186 27.0169 109.55C20.7788 107.003 15.6829 103.532 11.7292 99.1391C7.68766 94.7461 4.74434 89.6063 2.89928 83.7196C0.966362 77.9209 -9.67152e-05 71.7707 -9.6431e-05 65.2691L-9.6189e-05 59.7339L16.6054 59.7339L16.6054 64.4783Z" fill="white"/>
</svg>
