<svg width="115" height="114" viewBox="0 0 115 114" fill="none" xmlns="http://www.w3.org/2000/svg">
<path fill-rule="evenodd" clip-rule="evenodd" d="M100.531 0H13.5603C6.07842 0 0.0103037 6.05993 0.000109315 13.5418V100.385C-0.0143587 103.991 1.40785 107.454 3.95245 110.009C6.49705 112.564 9.95445 114 13.5603 114H100.531C104.134 113.995 107.587 112.557 110.128 110.003C112.668 107.448 114.088 103.988 114.073 100.385V13.5418C114.063 6.06706 108.006 0.0100671 100.531 0V0ZM49.1968 82.11C49.1919 83.3152 48.7073 84.4688 47.8499 85.3159C46.9926 86.163 45.8332 86.6336 44.628 86.6241H25.6219C23.136 86.6139 21.1262 84.5958 21.1262 82.11V25.5486C21.1262 23.0627 23.136 21.0447 25.6219 21.0346H44.628C47.1168 21.0446 49.1319 23.0598 49.1419 25.5486L49.1968 82.11ZM93.057 56.1411C93.057 57.3478 92.574 58.5043 91.7155 59.3525C90.8571 60.2006 89.6948 60.6697 88.4882 60.6553H69.4821C66.9933 60.645 64.9782 58.6299 64.9682 56.1411V25.5486C64.9782 23.0598 66.9933 21.0446 69.4821 21.0346H88.4882C90.974 21.0447 92.9839 23.0627 92.9839 25.5486L93.057 56.1411Z" fill="white"/>
</svg>
