<svg width="23" height="18" viewBox="0 0 23 18" fill="none" xmlns="http://www.w3.org/2000/svg" style="width: 100%; height: auto;"><path d="M22.8173 2.32433C21.984 2.67577 21.1028 2.90935 20.2007 3.01787C21.1514 2.47242 21.8622 1.60869 22.1983 0.590358C21.3084 1.10074 20.3347 1.46019 19.3195 1.65318C18.6968 1.0099 17.8884 0.56264 16.9994 0.36955C16.1103 0.176461 15.1818 0.246478 14.3344 0.570496C13.4871 0.894513 12.7602 1.45754 12.2482 2.18638C11.7362 2.91522 11.4628 3.77615 11.4636 4.65724C11.4601 4.99346 11.4954 5.329 11.5688 5.65765C9.76223 5.57201 7.99467 5.11863 6.3817 4.32718C4.76873 3.53572 3.34666 2.42399 2.20847 1.06468C1.62412 2.03065 1.44303 3.17584 1.70218 4.26652C1.96132 5.35719 2.64115 6.31113 3.60292 6.93361C2.88439 6.91483 2.18106 6.72933 1.55218 6.39273V6.44058C1.55337 7.45461 1.9158 8.43729 2.57848 9.22321C3.24115 10.0091 4.16361 10.5503 5.19057 10.7556C4.80206 10.8546 4.40166 10.9033 3.99989 10.9002C3.7114 10.9052 3.4232 10.88 3.14028 10.8252C3.43378 11.6967 3.99942 12.4588 4.75935 13.0066C5.51928 13.5544 6.43612 13.8609 7.38367 13.8841C5.77625 15.0996 3.79385 15.759 1.75325 15.757C1.38996 15.7593 1.02688 15.7391 0.66626 15.6965C2.74274 16.9904 5.1624 17.6749 7.63265 17.6671C15.989 17.6671 20.5578 10.9737 20.5578 5.1718C20.5578 4.97759 20.5509 4.79034 20.5412 4.60417C21.4369 3.98434 22.2082 3.21175 22.8173 2.32433Z" fill="white"></path></svg>
