<svg width="112" height="112" viewBox="0 0 112 112" fill="none" xmlns="http://www.w3.org/2000/svg">
<path fill-rule="evenodd" clip-rule="evenodd" d="M10.9375 0H101.062C107.103 0 112 4.89689 112 10.9375V101.062C112 107.103 107.103 112 101.062 112H10.9375C4.89689 112 0 107.103 0 101.062V10.9375C0 4.89689 4.89689 0 10.9375 0ZM69.3304 100.075V89.124C71.316 90.7896 73.4729 92.0386 75.8008 92.8712C78.129 93.704 80.4797 94.1203 82.8533 94.1203C84.2457 94.1203 85.4608 93.9949 86.4994 93.7438C87.5378 93.4929 88.4052 93.1451 89.1012 92.7001C89.7973 92.2552 90.3166 91.7306 90.659 91.126C91.0013 90.5214 91.1726 89.8656 91.1726 89.1583C91.1726 88.2 90.8987 87.3445 90.351 86.5918C89.803 85.8388 89.0555 85.143 88.1083 84.5042C87.1614 83.8655 86.0372 83.2495 84.7363 82.6562C83.4354 82.063 82.0317 81.4586 80.5254 80.8426C76.6909 79.2455 73.8323 77.2949 71.9495 74.9908C70.0665 72.6865 69.125 69.9031 69.125 66.6407C69.125 64.0854 69.6386 61.8896 70.6657 60.0532C71.6927 58.2166 73.0905 56.7052 74.8593 55.5187C76.6283 54.3325 78.6767 53.4599 81.0047 52.901C83.3326 52.3421 85.7975 52.0625 88.3995 52.0625C90.9556 52.0625 93.221 52.2165 95.1952 52.5245C97.1694 52.8325 98.9896 53.3059 100.656 53.9446V64.1769C99.834 63.6064 98.9382 63.1046 97.9683 62.671C96.9981 62.2377 95.9997 61.8782 94.9727 61.593C93.9455 61.308 92.9241 61.0969 91.9085 60.9599C90.8928 60.8232 89.9286 60.7547 89.0157 60.7547C87.7603 60.7547 86.6193 60.8744 85.5921 61.1139C84.565 61.3535 83.6979 61.6901 82.9902 62.1235C82.2828 62.557 81.7351 63.0759 81.347 63.6805C80.9589 64.2852 80.7649 64.9639 80.7649 65.7167C80.7649 66.5381 80.9819 67.2737 81.4155 67.9241C81.849 68.5742 82.4652 69.1902 83.2641 69.7721C84.063 70.3537 85.0329 70.924 86.1742 71.4831C87.3154 72.042 88.6049 72.618 90.0427 73.2113C92.0056 74.0324 93.7687 74.905 95.3321 75.829C96.8955 76.753 98.2365 77.7969 99.3547 78.9604C100.473 80.124 101.329 81.4529 101.922 82.9472C102.516 84.4414 102.812 86.1809 102.812 88.1659C102.812 90.9035 102.293 93.2019 101.255 95.0613C100.216 96.9207 98.807 98.4266 97.0268 99.5785C95.2466 100.731 93.1752 101.558 90.813 102.06C88.4507 102.562 85.9574 102.812 83.3326 102.812C80.6393 102.812 78.0776 102.584 75.6468 102.128C73.2161 101.672 71.1106 100.987 69.3304 100.075ZM64.9688 62.1429H50.9206V102.156H39.7919V62.1429H25.8125V53.1562H64.9688V62.1429Z" fill="white"/>
</svg>
